<svg xmlns="http://www.w3.org/2000/svg" width="20" height="21" viewBox="0 0 20 21" fill="none">
  <path d="M18.0284 3.66274C17.3492 3.98358 16.1934 4.58524 15.6125 4.70024C15.59 4.70608 15.5717 4.71358 15.55 4.71941C14.8725 4.05108 13.9442 3.63691 12.9167 3.63691C10.8459 3.63691 9.16669 5.31608 9.16669 7.38691C9.16669 7.49608 9.15753 7.69691 9.16669 7.80358C6.48503 7.80358 4.52669 6.40441 3.06086 4.60608C2.86503 4.36441 2.65669 4.49024 2.61336 4.66191C2.51586 5.05024 2.48253 5.69941 2.48253 6.16274C2.48253 7.33024 3.39503 8.47691 4.81586 9.18774C4.55419 9.25524 4.26586 9.30358 3.96586 9.30358C3.61253 9.30358 3.20586 9.21108 2.85003 9.02441C2.71836 8.95524 2.43419 8.97441 2.51836 9.31108C2.85586 10.6602 4.39586 11.6077 5.77169 11.8836C5.45919 12.0677 4.79253 12.0302 4.48586 12.0302C4.37253 12.0302 3.97836 12.0036 3.72336 11.9719C3.49086 11.9436 3.13336 12.0036 3.43253 12.4569C4.07503 13.4294 5.52836 14.0402 6.77919 14.0636C5.62753 14.9669 3.74419 15.2969 1.94003 15.2969C1.57503 15.2886 1.59336 15.7044 1.88753 15.8586C3.21836 16.5569 5.39836 16.9702 6.95586 16.9702C13.1475 16.9702 16.6667 12.2511 16.6667 7.80274C16.6667 7.73108 16.665 7.58108 16.6625 7.43024C16.6625 7.41524 16.6667 7.40108 16.6667 7.38608C16.6667 7.36358 16.66 7.34191 16.66 7.31941C16.6575 7.20608 16.655 7.10024 16.6525 7.04524C17.1434 6.69108 17.895 6.07608 18.275 5.60524C18.4042 5.44524 18.3 5.25108 18.1242 5.31191C17.6717 5.46941 16.8892 5.77441 16.3992 5.83274C17.38 5.18358 17.865 4.61858 18.2817 3.99108C18.4242 3.77691 18.2459 3.55941 18.0284 3.66274Z" fill="white"/>
</svg>